<svg xmlns="http://www.w3.org/2000/svg" viewBox="0 0 56 56">
  <defs>
    <style>
      .cls-1 {
        fill: #e60012;
      }

      .cls-1, .cls-2 {
        fill-rule: evenodd;
      }

      .cls-2 {
        fill: #fff;
      }
    </style>
  </defs>
  <path class="cls-1" d="M160,870h56l-56,56V870Z" transform="translate(-160 -870)"/>
  <path class="cls-2" d="M171.288,892.6l-1.45,1.45,3.754,3.754-5.888-1.62-1.454,1.454,6.032,6.032,1.455-1.454-3.754-3.754,5.892,1.616,1.445-1.446Zm8.414-3.624-2.288,2.287-1.272-1.272,2.71-2.71-1.123-1.123-4.164,4.164,6.033,6.033,4.156-4.156-1.119-1.118-2.7,2.7-1.442-1.442,2.287-2.287Zm3.8-8.592-1.235,1.235,2.954,4.611-4.475-3.091-1.446,1.446,7.317,4.748,1.5-1.5-2.647-4.23,4.247,2.631,1.508-1.508-4.753-7.313-1.441,1.442,3.09,4.475Z" transform="translate(-160 -870)"/>
</svg>
