<svg id="svgpack-ncommon_shared-icon-hardware" viewBox="0 0 34 34" width="100%" height="100%"><path d="M32 23h-9v9c0 1.1-.9 2-2 2h-8c-1.1 0-2-.9-2-2v-9H2c-1.1 0-2-.9-2-2v-8c0-1.1.9-2 2-2h9V2c0-1.1.9-2 2-2h8c1.1 0 2 .9 2 2v9h9c1.1 0 2 .9 2 2v8c0 1.1-.9 2-2 2zM8 16H4c-.6 0-1 .4-1 1s.4 1 1 1h4c.6 0 1-.4 1-1s-.4-1-1-1zM18 4c0-.6-.4-1-1-1s-1 .4-1 1v4c0 .6.4 1 1 1s1-.4 1-1V4zm0 22c0-.6-.4-1-1-1s-1 .4-1 1v4c0 .6.4 1 1 1s1-.4 1-1v-4zm12-10h-4c-.6 0-1 .4-1 1s.4 1 1 1h4c.6 0 1-.4 1-1s-.4-1-1-1z"></path></svg>