<?xml version="1.0" encoding="iso-8859-1"?>
<!-- Generator: Adobe Illustrator 18.1.1, SVG Export Plug-In . SVG Version: 6.00 Build 0)  -->
<svg version="1.1" id="&#x30EC;&#x30A4;&#x30E4;&#x30FC;_1"
	 xmlns="http://www.w3.org/2000/svg" xmlns:xlink="http://www.w3.org/1999/xlink" x="0px" y="0px" viewBox="-334 485.81 60 60"
	 style="enable-background:new -334 485.81 60 60;" xml:space="preserve">
<path style="fill:#B4B4B4;" d="M-334,485.81v60h60v-60H-334z M-294.8,517.91c0,0.1-0.1,0.1-0.2,0.2c0,0-9.6,9.6-10.9,10.8
	c-1.4,1.2-3.6,1.2-5,0c-1.3-1.1-1.5-2.9-0.4-4.2c0.2-0.2,0.3-0.3,0.4-0.4l8.6-8.5l-8.6-8.5c-1.3-1.1-1.5-2.9-0.4-4.2
	c0.2-0.2,0.3-0.3,0.4-0.4c1.4-1.2,3.6-1.2,5,0c1.3,1.2,10.9,10.8,10.9,10.8C-293.8,514.71-293.6,516.61-294.8,517.91z"/>
</svg>
